<svg width="200" height="200" viewBox="0 0 200 200" xmlns="http://www.w3.org/2000/svg">
  <!-- Main drum body - white background -->
  <rect x="55" y="80" width="90" height="110" rx="8" ry="8" 
        fill="#FFFFFF" stroke="#000000" stroke-width="3"/>
  
  <!-- Red section on drum body -->
  <rect x="55" y="90" width="40" height="30" 
        fill="#DE1F26" stroke="#000000" stroke-width="2"/>
  
  <!-- Yellow section on drum body -->
  <rect x="105" y="90" width="40" height="30" 
        fill="#F9D71C" stroke="#000000" stroke-width="2"/>
  
  <!-- Blue section on drum body -->
  <rect x="75" y="150" width="50" height="25" 
        fill="#1E5BA8" stroke="#000000" stroke-width="2"/>
  
  <!-- Main drum face - white background -->
  <circle cx="100" cy="80" r="55" 
          fill="#FFFFFF" stroke="#000000" stroke-width="4"/>
  
  <!-- Red quarter section on drum face -->
  <path d="M 100,80 L 100,25 A 55,55 0 0,1 155,80 Z" 
        fill="#DE1F26" stroke="#000000" stroke-width="2"/>
  
  <!-- Yellow quarter section on drum face -->
  <path d="M 100,80 L 45,80 A 55,55 0 0,1 100,25 Z" 
        fill="#F9D71C" stroke="#000000" stroke-width="2"/>
  
  <!-- Blue quarter section on drum face -->
  <path d="M 100,80 L 100,135 A 55,55 0 0,1 45,80 Z" 
        fill="#1E5BA8" stroke="#000000" stroke-width="2"/>
  
  <!-- Inner white circle -->
  <circle cx="100" cy="80" r="25" 
          fill="#FFFFFF" stroke="#000000" stroke-width="3"/>
  
  <!-- Small colored squares in center -->
  <rect x="90" y="70" width="8" height="8" 
        fill="#DE1F26" stroke="#000000" stroke-width="1"/>
  <rect x="102" y="70" width="8" height="8" 
        fill="#F9D71C" stroke="#000000" stroke-width="1"/>
  <rect x="90" y="82" width="8" height="8" 
        fill="#1E5BA8" stroke="#000000" stroke-width="1"/>
  <rect x="102" y="82" width="8" height="8" 
        fill="#FFFFFF" stroke="#000000" stroke-width="1"/>
  
  <!-- Mondrian-style grid lines on drum body -->
  <line x1="75" y1="80" x2="75" y2="190" 
        stroke="#000000" stroke-width="3"/>
  <line x1="125" y1="80" x2="125" y2="190" 
        stroke="#000000" stroke-width="3"/>
  <line x1="55" y1="120" x2="145" y2="120" 
        stroke="#000000" stroke-width="3"/>
  <line x1="55" y1="175" x2="145" y2="175" 
        stroke="#000000" stroke-width="3"/>
  
  <!-- Cute eyes - black circles -->
  <circle cx="85" cy="65" r="3" 
          fill="#000000" stroke="none"/>
  <circle cx="115" cy="65" r="3" 
          fill="#000000" stroke="none"/>
  
  <!-- White highlights in eyes -->
  <circle cx="86" cy="64" r="1" 
          fill="#FFFFFF" stroke="none"/>
  <circle cx="116" cy="64" r="1" 
          fill="#FFFFFF" stroke="none"/>
  
  <!-- Cute smile -->
  <path d="M 92 95 Q 100 102 108 95" 
        stroke="#000000" stroke-width="2" fill="none" 
        stroke-linecap="round"/>
  
  <!-- Red blush marks -->
  <rect x="67" y="82" width="6" height="6" 
        fill="#DE1F26" stroke="#000000" stroke-width="1"/>
  <rect x="127" y="82" width="6" height="6" 
        fill="#DE1F26" stroke="#000000" stroke-width="1"/>
  
  <!-- Top decoration - Mondrian style -->
  <rect x="90" y="20" width="20" height="10" 
        fill="#F9D71C" stroke="#000000" stroke-width="2"/>
  <rect x="85" y="22" width="8" height="6" 
        fill="#DE1F26" stroke="#000000" stroke-width="1"/>
  <rect x="107" y="22" width="8" height="6" 
        fill="#1E5BA8" stroke="#000000" stroke-width="1"/>
  
  <!-- Connecting lines -->
  <line x1="100" y1="30" x2="100" y2="25" 
        stroke="#000000" stroke-width="2"/>
  <line x1="89" y1="28" x2="95" y2="30" 
        stroke="#000000" stroke-width="2"/>
  <line x1="111" y1="28" x2="105" y2="30" 
        stroke="#000000" stroke-width="2"/>
  
  <!-- Drumstick - Mondrian colors -->
  <g transform="translate(160,130)" opacity="0.9">
    <line x1="0" y1="0" x2="25" y2="-15" 
          stroke="#000000" stroke-width="4" stroke-linecap="round"/>
    <circle cx="27" cy="-17" r="4" 
            fill="#F9D71C" stroke="#000000" stroke-width="2"/>
    <!-- Handle grip -->
    <rect x="-2" y="-2" width="4" height="8" 
          fill="#DE1F26" stroke="#000000" stroke-width="1"/>
  </g>
  
  <!-- Decorative squares (instead of stars) -->
  <g transform="translate(40,40)" opacity="0.8">
    <rect x="-3" y="-3" width="6" height="6" 
          fill="#1E5BA8" stroke="#000000" stroke-width="1"/>
  </g>
  
  <g transform="translate(160,50)" opacity="0.8">
    <rect x="-2" y="-2" width="4" height="4" 
          fill="#DE1F26" stroke="#000000" stroke-width="1"/>
  </g>
  
  <g transform="translate(35,120)" opacity="0.8">
    <rect x="-2" y="-2" width="4" height="4" 
          fill="#F9D71C" stroke="#000000" stroke-width="1"/>
  </g>
  
  <!-- Base line -->
  <line x1="65" y1="188" x2="135" y2="188" 
        stroke="#000000" stroke-width="2"/>
</svg>