<?xml version="1.0" encoding="UTF-8"?>
<svg width="40" height="40" viewBox="0 0 1328 1328" xmlns="http://www.w3.org/2000/svg">
<g fill="#FFFFFF" stroke="none" opacity="0.95">
<!-- 简化的鸟身主体 -->
<path d="M400 1200 Q600 350 1400 500 Q1350 650 900 600 Q450 650 400 1200"/>

<!-- 简化的翅膀 -->
<path d="M900 420 Q1200 380 1400 550 Q1350 800 1100 750 Q950 650 900 420"/>

<!-- 简化的尾羽 -->
<path d="M1150 580 Q1500 550 1600 700 Q1500 850 1300 800 Q1200 700 1150 580"/>

<!-- 简化的头部 -->
<circle cx="400" cy="480" r="80"/>

<!-- 眼睛 -->
<circle cx="380" cy="460" r="15"/>

<!-- 简化的喙 -->
<path d="M320 480 L250 495 L320 510"/>

<!-- 简化的腿部 -->
<line x1="480" y1="620" x2="460" y2="720" stroke="#FFFFFF" stroke-width="18"/>
<line x1="520" y1="620" x2="500" y2="720" stroke="#FFFFFF" stroke-width="18"/>
</g>
</svg>