<?xml version="1.0" standalone="no"?>
<svg version="1.0" xmlns="http://www.w3.org/2000/svg"
 width="40" height="40" viewBox="0 0 1328 1328"
 preserveAspectRatio="xMidYMid meet">
<g transform="translate(0.000000,1328.000000) scale(0.100000,-0.100000)"
fill="#FFFFFF" stroke="none" opacity="0.95">
<!-- 保留主要鳄鱼身体轮廓 -->
<path d="M12660 13273 c-346 -38 -970 -220 -1365 -398 -169 82 -563 201 -666 201 -108 0 -136 -29 -205 -205 -148 -479 -63 -39 l-55 -30 -118 37
c-227 70 -450 117 -647 138 -186 19 -224 -4 -287 -176 -159 -597 -96 -243 l-63 -46 -93 30 c-326 105 -684 191
-792 191 -109 -33 -131 -66 -136 -759 l-17 -155 -109 -89 -109 -88 -177 35 c-250 51 -423 75 -614 87 -194
12 -273 4 -323 -34 -80 -192 -42 -368 -9 -763 l15
-185 -85 -84 -84 -85 -189 14 c-205 15 -674 19 -765 6 -142
-87 -1 -336 96 -511 l40 -161 -77 -100 -76
-99 -237 -7 c-247 -7 -464 -27 -566 -52 -140 -139 74 -465 223 -818 l50 -117 -53 -125 c-106 -273 l-53 -147
-275 0 c-628 -71 -787 -317 -1004 -540 -124 -244 26 -115 138 -130 197 -119 340 37 l110 32 183 -51 c200 -54 41 -68 39 -97 -272 -236 -754 -559 -1195 -800 l-133
-72 -102 55 c-818 150 -331 -167 -306
-254 -493 -754 -435 -1164 262 -651 603 -813 108 -46
77 -131 83 -143 232 -298 330 -345 194 -91
359 19 489 326 l43 102 66 7 c463 75 l146 30 75 -74 c478 -254 125 21 83 43 136 113 177 238 59
302 l3 39 215 83 c266 103 l50 20 47 -29 c282
-65 115 201 0 69 2 76 23 84 141 65 123
52 -133 -221 -454 -456 -261 -179 -53 44 -351 -181 l-27 -82 -76 -32
c-349 -123 -120 81 -316
181 -332 -313 l-41 -110 -83 -8 c-280 -170
197 -119 340 37 l110 32 776 281 1030 555 375 254 449 321 842 662 1179 1024 406 470 l21 28 98 -21 c612 -233 l69 -42 295 -108 207 97 79 -18 234 -74 178 67 106 179 85 94 151 118 -185 1023 -367 507 l-112 112 143 148 c1036 1478 255
550 95 -14 909 201 103 73 98 -10 237 -232 254 19 205 192 l22 37 113 1 c164 27 135 71 182 211 137 413
l-16 75 56 58 c2 365 -644 661 -574 153 l-128 6 -31 39 c-438 348 -78 46
216 669 1167 2086 870 904 296 353 -153 166 -237 19z"/>

<!-- 保留主要眼睛 -->
<path d="M4037 5106 c-187 -67 -318 -265 -318 -484 197 -289 508 16 205 152 264 455 137 703 -249 200 -76 23 -205 19 -286 -9z"/>
<path d="M5734 4990 c-316 -63 -489 -438 -348 -756 192 -207
633 188 69 274 -62 264 -90 179
-288 276 -484 237z"/>
</g>
</svg>