<?xml version="1.0" standalone="no"?>
<!DOCTYPE svg PUBLIC "-//W3C//DTD SVG 20010904//EN"
 "http://www.w3.org/TR/2001/REC-SVG-20010904/DTD/svg10.dtd">
<svg version="1.0" xmlns="http://www.w3.org/2000/svg"
 width="40" height="40" viewBox="0 0 1328.000000 1328.000000"
 preserveAspectRatio="xMidYMid meet">
<g transform="translate(0.000000,1328.000000) scale(0.100000,-0.100000)"
fill="#FFFFFF" stroke="none" opacity="0.95">
<path d="M12660 13273 c-346 -38 -970 -220 -1365 -398 -83 -37 -87 -37 -152
-6 -169 82 -563 201 -666 201 -108 0 -136 -29 -205 -205 -67 -173 -116 -331
-148 -479 -15 -66 -30 -125 -35 -131 -4 -5 -33 -23 -63 -39 l-55 -30 -118 37
c-227 70 -450 117 -647 138 -186 19 -224 -4 -287 -176 -77 -209 -136 -432
-159 -597 -29 -202 -25 -193 -96 -243 l-63 -46 -93 30 c-326 105 -684 191
-792 191 -44 0 -109 -33 -131 -66 -8 -13 -29 -73 -45 -135 -59 -215 -103 -460
-136 -759 l-17 -155 -109 -89 -109 -88 -177 35 c-250 51 -423 75 -614 87 -194
12 -273 4 -323 -34 -44 -34 -62 -76 -80 -192 -40 -248 -42 -368 -9 -763 l15
-185 -85 -84 -84 -85 -189 14 c-205 15 -674 19 -765 6 -67 -10 -114 -38 -142
-87 -26 -43 -26 -130 -1 -336 21 -176 46 -306 96 -511 l40 -161 -77 -100 -76
-99 -237 -7 c-247 -7 -464 -27 -566 -52 -79 -19 -130 -69 -140 -139 -19 -125
74 -465 223 -818 l50 -117 -53 -125 c-30 -69 -77 -192 -106 -273 l-53 -147
-275 0 c-298 0 -400 -12 -628 -71 -385 -100 -787 -317 -1004 -540 -102 -106
-123 -148 -124 -244 0 -64 4 -81 26 -115 31 -48 108 -120 138 -130 27 -8 27
-14 -8 -83 -62 -123 -65 -234 -8 -319 41 -61 104 -99 197 -119 92 -19 177 -10
340 37 l110 32 183 -51 c100 -28 190 -52 200 -54 12 -2 25 -24 41 -68 12 -36
30 -79 39 -97 23 -44 22 -49 -15 -82 -272 -236 -754 -559 -1195 -800 l-133
-72 -102 55 c-298 159 -569 208 -818 150 -93 -22 -254 -103 -331 -167 -306
-254 -493 -754 -435 -1164 51 -366 262 -651 603 -813 45 -22 94 -42 108 -46
14 -4 32 -16 39 -28 7 -11 42 -70 77 -131 83 -143 232 -298 330 -345 194 -91
359 19 489 326 l43 102 66 7 c104 10 303 43 463 75 l146 30 75 -74 c148 -145
335 -245 478 -254 66 -4 81 -1 125 21 83 43 136 113 177 238 18 52 55 243 59
302 l3 39 215 83 c118 45 238 92 266 103 l50 20 47 -29 c107 -66 218 -92 282
-65 86 36 115 87 115 201 0 69 2 76 23 84 12 5 76 34 141 65 65 31 121 55 123
52 7 -7 -67 -130 -133 -221 -104 -146 -257 -299 -454 -456 -61 -49 -251 -179
-261 -179 -5 0 -28 20 -53 44 -129 129 -276 53 -351 -181 l-27 -82 -76 -32
c-95 -39 -306 -114 -349 -123 -29 -7 -37 -1 -120 81 -121 119 -220 176 -316
181 -156 9 -242 -72 -332 -313 l-41 -110 -83 -8 c-159 -16 -253 -73 -280 -170
-8 -26 -12 -79 -10 -124 3 -63 10 -91 36 -143 74 -151 239 -254 439 -275 146
-16 572 79 1129 252 237 73 635 218 776 281 24 11 107 48 184 82 319 141 725
360 1030 555 162 103 217 140 375 254 449 321 842 662 1179 1024 152 164 353
396 406 470 l21 28 98 -21 c197 -43 474 -148 612 -233 l69 -42 6 -105 c7 -127
29 -208 75 -278 67 -102 169 -139 295 -108 64 16 164 63 207 97 23 18 24 17
79 -18 80 -51 154 -74 234 -74 80 0 122 16 178 67 52 46 84 101 106 179 20 71
26 78 85 94 68 20 125 64 151 118 80 166 -13 679 -185 1023 -105 208 -196 334
-367 507 l-112 112 143 148 c402 416 734 891 1036 1478 96 188 201 414 255
550 13 33 24 61 25 63 1 1 43 -5 95 -14 306 -53 629 18 909 201 39 25 85 58
103 73 69 59 62 59 98 -10 47 -90 168 -208 237 -232 76 -26 179 -19 254 19 62
30 167 129 205 192 l22 37 113 1 c103 0 118 3 164 27 135 71 182 211 137 413
l-16 75 56 58 c98 103 98 171 2 365 -138 278 -374 520 -644 661 -191 99 -355
143 -574 153 l-128 6 -31 39 c-67 86 -294 266 -438 348 -41 24 -76 44 -78 46
-9 7 126 426 216 669 297 805 683 1495 1167 2086 246 300 561 628 870 904 244
219 276 257 296 353 11 53 11 68 -4 115 -24 76 -83 140 -153 166 -49 19 -75
21 -237 19 -100 0 -198 -3 -217 -5z m250 -291 c0 -5 -67 -69 -149 -143 -305
-273 -713 -700 -927 -969 -493 -617 -859 -1276 -1176 -2115 -40 -104 -203
-600 -213 -643 -6 -29 -10 -33 -28 -28 -148 43 -173 44 -232 16 -51 -25 -75
-65 -75 -125 0 -94 34 -127 172 -166 285 -83 501 -212 730 -438 65 -63 128
-121 140 -128 15 -8 66 -12 144 -13 339 -1 600 -113 841 -361 40 -41 86 -93
102 -114 36 -49 131 -206 131 -216 0 -4 -22 -23 -48 -44 -94 -71 -106 -121
-63 -255 16 -52 31 -111 33 -130 3 -35 3 -35 -37 -34 -22 1 -72 5 -111 9 -40
4 -83 5 -97 1 -42 -10 -85 -54 -122 -125 -40 -76 -106 -151 -134 -151 -25 0
-54 35 -91 109 -55 111 -60 132 -43 183 29 88 -25 178 -116 193 -60 10 -113
-21 -191 -112 -142 -167 -386 -324 -580 -375 -71 -19 -111 -23 -240 -23 -134
0 -165 3 -230 24 -130 40 -245 107 -339 196 -102 98 -160 177 -226 309 -55
110 -81 136 -147 143 -84 10 -149 -45 -156 -131 -4 -46 1 -66 35 -142 90 -204
252 -397 445 -531 l46 -31 -43 -104 c-92 -222 -246 -533 -370 -749 -179 -312
-435 -681 -638 -920 -96 -113 -365 -389 -379 -389 -5 0 -42 20 -81 44 -206
124 -288 136 -367 51 -21 -23 -25 -36 -25 -92 0 -63 1 -65 41 -101 22 -20 85
-61 140 -89 252 -134 508 -364 651 -585 162 -251 253 -519 277 -824 l6 -71
-52 -7 c-115 -16 -157 -63 -178 -203 -7 -45 -18 -90 -26 -100 -12 -17 -15 -17
-56 6 -24 13 -66 42 -94 63 -29 21 -67 43 -85 48 -42 12 -103 -3 -149 -38 -58
-45 -154 -102 -171 -102 -23 0 -29 29 -29 155 0 61 -5 127 -10 147 -37 130
-485 366 -873 457 -180 43 -279 51 -326 26 -16 -8 -69 -63 -117 -122 -608
-744 -1250 -1304 -2054 -1790 -630 -381 -1277 -657 -2060 -878 -311 -88 -493
-131 -615 -146 -118 -14 -182 -1 -253 51 -68 49 -59 55 96 69 326 30 635 100
982 221 773 272 1365 708 1677 1238 63 108 160 308 193 399 20 57 27 64 84 99
115 70 281 187 379 267 l99 81 46 -14 c113 -33 190 -19 233 41 31 44 34 89 11
142 -23 53 -51 73 -123 92 -78 21 -143 70 -195 147 -54 83 -78 99 -143 100
-94 0 -146 -61 -139 -164 3 -45 11 -68 36 -104 18 -25 30 -49 27 -54 -10 -16
-207 -165 -280 -212 -420 -270 -1191 -612 -1970 -873 -838 -281 -1597 -398
-2015 -310 -167 35 -321 102 -437 189 -203 155 -306 414 -273 688 40 335 210
636 420 743 92 47 153 58 289 52 100 -4 143 -10 211 -32 97 -31 225 -93 326
-156 124 -79 153 -71 529 141 466 263 1004 636 1238 859 62 58 77 88 77 148 0
39 -9 62 -45 123 -77 128 -112 281 -101 445 25 389 265 692 621 786 111 29
289 29 397 1 211 -56 389 -183 506 -360 47 -72 91 -102 148 -102 63 0 90 14
165 85 199 188 429 276 682 262 343 -19 632 -214 772 -521 18 -39 40 -96 49
-127 19 -68 50 -104 105 -120 80 -24 158 19 182 101 16 52 5 110 -43 232 -102
257 -341 506 -601 628 -206 97 -478 133 -702 94 -172 -30 -323 -92 -477 -196
l-97 -66 -78 77 c-201 198 -423 301 -709 331 -53 6 -99 12 -100 13 -10 10 104
342 178 517 57 136 223 464 308 610 155 268 468 714 644 921 17 20 72 85 121
145 424 513 1191 1259 1889 1838 395 327 922 733 1291 994 88 62 219 154 290
204 199 141 651 437 949 622 1185 738 2040 1123 2778 1251 125 21 271 39 361
44 15 0 27 -3 27 -7z m-2242 -262 c56 -17 115 -37 133 -44 l31 -13 -63 -35
c-35 -20 -102 -55 -149 -79 -47 -23 -102 -53 -122 -66 -20 -12 -39 -19 -41
-15 -5 7 74 249 88 271 9 15 8 15 123 -19z m-1341 -680 c155 -26 296 -61 286
-70 -4 -4 -116 -76 -248 -160 -132 -84 -247 -159 -256 -166 -27 -24 -32 -16
-25 39 10 87 100 377 116 377 5 0 61 -9 127 -20z m-1337 -876 c175 -45 280
-78 280 -88 -1 -6 -26 -29 -58 -51 -31 -21 -153 -111 -270 -198 -117 -88 -215
-157 -218 -154 -8 8 21 201 57 375 l32 153 41 -7 c23 -3 84 -17 136 -30z
m-1465 -1130 c244 -29 316 -42 322 -61 2 -5 -45 -52 -104 -104 -104 -90 -370
-329 -441 -397 -20 -18 -37 -31 -39 -29 -2 2 -9 85 -15 185 -10 145 -9 205 1
299 7 65 15 121 17 124 5 8 104 2 259 -17z m-1112 -1301 c113 -6 125 -14 86
-49 -12 -10 -107 -115 -211 -231 -105 -117 -193 -213 -197 -213 -13 0 -90 414
-91 488 0 14 226 17 413 5z m-933 -1310 c0 -3 -38 -67 -84 -142 -46 -75 -107
-178 -136 -230 -43 -77 -54 -91 -62 -76 -17 29 -115 337 -123 382 -8 52 -11
50 170 62 177 11 235 12 235 4z m-847 -1669 c3 -4 -30 -25 -73 -48 -144 -74
-278 -190 -386 -331 -106 -140 -201 -394 -219 -587 -4 -42 -11 -68 -18 -68 -7
0 -76 18 -155 40 -177 50 -217 50 -359 6 -59 -19 -134 -37 -166 -41 -68 -9
-68 -20 11 134 49 95 54 110 49 154 -6 66 -29 93 -123 144 -100 56 -103 59
-78 81 300 278 761 472 1224 516 67 6 287 6 293 0z m-657 -4295 c-7 -42 -41
-147 -51 -157 -8 -8 -101 39 -154 78 -24 17 -39 35 -35 40 5 4 56 21 113 39
58 17 107 33 109 36 16 16 24 0 18 -36z"/>
<path d="M4037 5106 c-187 -67 -318 -265 -318 -484 0 -48 5 -109 11 -137 25
-111 105 -229 197 -289 143 -95 367 -88 508 16 205 152 264 455 137 703 -48
94 -138 167 -249 200 -76 23 -205 19 -286 -9z"/>
<path d="M5734 4990 c-316 -63 -489 -438 -348 -756 29 -66 127 -172 192 -207
227 -124 500 -43 633 188 33 58 69 200 69 274 0 78 -28 197 -62 264 -90 179
-288 276 -484 237z"/>
<path d="M819 2807 c-63 -32 -103 -113 -107 -217 -3 -66 -1 -79 20 -110 40
-60 141 -77 193 -32 87 74 124 263 64 329 -26 28 -77 53 -107 53 -10 0 -39
-10 -63 -23z"/>
<path d="M1520 2693 c-78 -40 -105 -152 -60 -250 53 -117 214 -111 264 10 18
43 19 54 8 105 -7 31 -20 68 -30 81 -47 64 -121 86 -182 54z"/>
</g>
</svg>