<?xml version="1.0" standalone="no"?>
<svg version="1.0" xmlns="http://www.w3.org/2000/svg"
 width="40" height="40" viewBox="0 0 1328 1328"
 preserveAspectRatio="xMidYMid meet">
<g transform="translate(0.000000,1328.000000) scale(0.100000,-0.100000)"
fill="#FFFFFF" stroke="none" opacity="0.95">
<!-- 保留主要鸟身轮廓 -->
<path d="M4065 12399 c-138 -14 -236 -29 -380 -61 -623 -135 -1194 -467 -1564
-908 -305 -363 -501 -751 -606 -1197 -378 -136 -841 -345 -906 -409 -99 -100 -99 -258 2 -342 107 -90 620
-349 929 -469 58 -22 110 -45 116 -51 86 -172 245 -399 376 -537 l74 -78 -6 -78 c-21
-178 -30 -698 -15 -896 75 -977 408 -1824 987 -2504 385 -323 879 -602 1398 -789 
0 -14 -248 -435 -279 -472 -228 -19 -461 -39 -517 -43 -120 -11 -171
-34 -216 -97 20 -59 74 -112 135 -131 142 15 268 29 281 32 67 28
265 170 511 366 41 -93 78 -200 86
-217 41 -77 155 -126 238 -102 119 35 173 144 137 276 84 181 52 89 132 227 177 307 74 -13
161 -32 491 -107 984 -151 1437 -126 126 6 230 10 232 8 9 -8 -162 -537 -179
-555 -559 -156 -600 -170 -636 -211 52 -90 144 -122 263 -91 162 46 283 82 122 36 228 64 237
62 74 39 209 192 393 450 10
0 45 -56 130 -205 61 -64 180 -76 260 -25 83 52 120
167 83 257 -189 330 -301 497 15 60 34 118
100 325 106 347 105 344 129 350 127 27 468 115 562 145 521 165
947 374 1420 697 782 660 135 134 164 153 483 331 484 269
1408 871 1666 1085 147 121 181 216 134 368 -443 821 -139
228 -178 277 -245 310 -495 -44 -604
-95 -1274 -220 -1777 -331 -99 174
-509 1021 -1260 1955 -2049 2549 -110 88 -8 96 0
47 -94 910 -498 1601 -1210 2064 -384 250 -880 414 -1365 451
-155 11 -447 11 -565 -1z"/>

<!-- 保留眼睛部分 -->
<path d="M3170 10239 c-82 -13 -192 -72 -253 -134 -227 -230 -166 -625 118
-768 73 -37 128 -49 219 -48 359 1 584 373 423 701 -84 111 -72
76 -158 122 -263 138 -73 12 -83 12 -160 0z"/>
</g>
</svg>