<?xml version="1.0" standalone="no"?>
<!DOCTYPE svg PUBLIC "-//W3C//DTD SVG 20010904//EN"
 "http://www.w3.org/TR/2001/REC-SVG-20010904/DTD/svg10.dtd">
<svg version="1.0" xmlns="http://www.w3.org/2000/svg"
 width="40" height="40" viewBox="0 0 1328.000000 1328.000000"
 preserveAspectRatio="xMidYMid meet">
<g transform="translate(0.000000,1328.000000) scale(0.100000,-0.100000)"
fill="#FFFFFF" stroke="none" opacity="0.95">
<path d="M4065 12399 c-138 -14 -236 -29 -380 -61 -623 -135 -1194 -467 -1564
-908 -305 -363 -501 -751 -606 -1197 -9 -40 -22 -76 -28 -81 -7 -6 -43 -21
-82 -35 -378 -136 -841 -345 -906 -409 -99 -100 -99 -258 2 -342 107 -90 620
-349 929 -469 58 -22 110 -45 116 -51 6 -6 33 -67 59 -136 26 -69 66 -161 88
-205 86 -172 245 -399 376 -537 l74 -78 -6 -78 c-4 -42 -14 -135 -23 -207 -21
-178 -30 -698 -15 -896 75 -977 408 -1824 987 -2504 113 -133 311 -330 449
-446 385 -323 879 -602 1398 -789 78 -28 117 -48 117 -58 0 -14 -248 -435
-279 -472 -15 -19 -52 -23 -431 -56 -228 -19 -461 -39 -517 -43 -120 -11 -171
-34 -216 -97 -34 -48 -46 -132 -27 -189 20 -59 74 -112 135 -131 51 -17 63
-16 312 10 142 15 268 29 281 32 12 4 22 2 22 -3 0 -9 -63 -55 -248 -183 -98
-68 -137 -154 -112 -245 15 -53 67 -116 114 -139 43 -20 125 -21 173 -1 67 28
265 170 511 366 31 25 56 39 61 33 5 -5 41 -93 79 -196 39 -103 78 -200 86
-217 41 -77 155 -126 238 -102 119 35 173 144 137 276 -11 40 -221 572 -240
607 -8 16 7 48 84 181 52 89 132 227 177 307 46 80 84 146 85 148 1 1 74 -13
161 -32 491 -107 984 -151 1437 -126 126 6 230 10 232 8 9 -8 -162 -537 -179
-555 -12 -14 -33 -20 -421 -128 -559 -156 -600 -170 -636 -211 -58 -67 -69
-174 -24 -249 52 -90 144 -122 263 -91 34 9 162 46 283 82 122 36 228 64 237
62 17 -3 -53 -94 -201 -263 -44 -49 -88 -110 -99 -134 -41 -90 -8 -202 77
-260 50 -34 147 -40 201 -13 74 39 209 192 393 450 56 78 105 142 109 142 10
0 45 -56 130 -205 40 -71 85 -142 99 -157 61 -64 180 -76 260 -25 83 52 120
167 83 257 -23 56 -189 330 -301 497 -27 40 -49 78 -49 85 0 7 15 60 34 118
18 58 64 204 100 325 106 347 105 344 129 350 127 27 468 115 562 145 521 165
947 374 1420 697 229 157 519 401 782 660 135 134 164 153 483 331 484 269
1408 871 1666 1085 147 121 181 216 134 368 -40 130 -194 415 -443 821 -139
228 -178 277 -245 310 -43 21 -59 23 -192 22 -131 -1 -332 -19 -495 -44 -604
-95 -1274 -220 -1777 -331 -102 -23 -193 -39 -202 -36 -8 3 -53 82 -99 174
-509 1021 -1260 1955 -2049 2549 -57 43 -106 83 -110 88 -4 6 -8 49 -8 96 0
47 -7 148 -15 225 -94 910 -498 1601 -1210 2064 -384 250 -880 414 -1365 451
-155 11 -447 11 -565 -1z m690 -434 c271 -42 460 -96 690 -197 553 -243 985
-701 1193 -1263 112 -301 151 -516 159 -865 7 -301 3 -292 175 -421 514 -386
936 -809 1321 -1326 126 -170 340 -491 464 -698 341 -568 612 -1217 718 -1718
35 -163 34 -171 -13 -185 -133 -40 -713 -65 -992 -43 -509 41 -1020 159 -1476
341 -143 57 -447 207 -539 264 -221 140 -321 217 -468 364 -231 228 -381 482
-433 732 -18 85 -24 262 -15 420 6 92 -17 145 -81 187 -36 25 -51 28 -119 28
-71 0 -80 -2 -116 -31 -59 -48 -81 -97 -93 -205 -55 -525 136 -1009 565 -1434
243 -241 521 -430 900 -611 911 -436 2165 -600 3058 -399 169 38 247 92 282
194 20 59 19 116 -5 258 -40 234 -120 529 -219 808 -34 94 -61 173 -61 177 0
19 857 192 1445 292 356 61 697 106 802 106 l52 0 40 -58 c55 -82 226 -366
299 -497 88 -160 116 -221 109 -239 -8 -22 -155 -128 -424 -309 -414 -279
-872 -561 -1358 -837 l-200 -114 -180 -176 c-202 -197 -314 -298 -460 -416
-722 -581 -1592 -932 -2540 -1025 -191 -19 -652 -17 -860 5 -790 81 -1528 323
-2144 704 -375 231 -737 564 -988 907 -288 394 -509 882 -623 1375 -83 356
-113 617 -113 990 -1 273 10 439 45 665 28 185 33 265 18 310 -8 25 -51 79
-122 154 -217 231 -359 441 -443 660 -220 569 -174 1276 122 1853 308 604 866
1039 1557 1218 110 28 338 66 446 74 123 9 528 -3 625 -19z m-3302 -2272 c3
-5 8 -86 12 -180 7 -164 6 -173 -12 -172 -32 1 -408 174 -408 188 0 14 44 34
255 117 145 57 147 58 153 47z"/>
<path d="M3170 10239 c-82 -13 -192 -72 -253 -134 -227 -230 -166 -625 118
-768 73 -37 128 -49 219 -48 359 1 584 373 423 701 -12 24 -50 74 -84 111 -72
76 -158 122 -263 138 -73 12 -83 12 -160 0z"/>
</g>
</svg>